# xmcd
#
# Track frame offsets:
#	150
#	21919
#	37708
#	65649
#	75773
#	101669
#	112592
#	139598
#	155586
#	177720
#
# Disc length: 2666 seconds
#
# Revision: 0
# Processed by: cddbd v1.5PL3 Copyright (c) Steve Scherf et al.
# Submitted via: dBpowerAMP V4.0
#
DISCID=720a680a
DTITLE=Cole Marquis - Lightning in a Bottle
DYEAR=1998
DGENRE=Pop
TTITLE0=Umbrella
TTITLE1=White Trash in Summer
TTITLE2=Orchid
TTITLE3=Boats
TTITLE4=I Only Have Eyes For You
TTITLE5=48's
TTITLE6=Incredible Shrinking Man
TTITLE7=Hand Grenade
TTITLE8=Drop of Sleep
TTITLE9=Getting Darker Sooner
EXTD=
EXTT0=
EXTT1=
EXTT2=
EXTT3=
EXTT4=
EXTT5=
EXTT6=
EXTT7=
EXTT8=
EXTT9=
PLAYORDER=
